{
  "cells": [
    {
      "cell_type": "markdown",
      "metadata": {
        "id": "3PkXjAD5Jcnu"
      },
      "source": [
        "# 환경 변수 설정"
      ]
    },
    {
      "cell_type": "code",
      "execution_count": null,
      "metadata": {
        "colab": {
          "base_uri": "https://localhost:8080/"
        },
        "id": "_xs3OQsG0aaM",
        "outputId": "1ed796f0-af60-490f-e14e-2ba0d57bff95"
      },
      "outputs": [
        {
          "output_type": "stream",
          "name": "stdout",
          "text": [
            "Mounted at /content/drive\n",
            "[CHECK] ctxPath : /content/drive/MyDrive/COLAB/testSys-LSH0568\n",
            "[CHECK] inpPath : /content/drive/MyDrive/COLAB/testSys-LSH0568/INPUT\n",
            "[CHECK] outPath : /content/drive/MyDrive/COLAB/testSys-LSH0568/OUTPUT\n",
            "[CHECK] figPath : /content/drive/MyDrive/COLAB/testSys-LSH0568/FIG\n",
            "[CHECK] getcwd : /content/drive/MyDrive/COLAB/testSys-LSH0568/YOLOv7-DeepSORT-Object-Tracking\n"
          ]
        }
      ],
      "source": [
        "import os\n",
        "from google.colab import drive\n",
        "\n",
        "# 구글 드라이브 연결\n",
        "drive.mount('/content/drive')\n",
        "\n",
        "# 주요 설정\n",
        "serviceName = 'LSH0568'\n",
        "contextPath = f\"/content/drive/MyDrive/COLAB/testSys-{serviceName}\"\n",
        "\n",
        "globalVar = {\n",
        "    'ctxPath':  f\"{contextPath}\"\n",
        "    , 'inpPath': f\"{contextPath}/INPUT\"\n",
        "    , 'outPath': f\"{contextPath}/OUTPUT\"\n",
        "    , 'figPath': f\"{contextPath}/FIG\"\n",
        "}\n",
        "\n",
        "for key, val in globalVar.items():\n",
        "    if key.__contains__('Path'):\n",
        "        os.makedirs(val, exist_ok=True)\n",
        "        print(f\"[CHECK] {key} : {val}\")\n",
        "\n",
        "# 작업 경로 설정\n",
        "os.makedirs(f\"{globalVar['ctxPath']}/YOLOv7-DeepSORT-Object-Tracking\", exist_ok=True)\n",
        "os.chdir(f\"{globalVar['ctxPath']}/YOLOv7-DeepSORT-Object-Tracking\")\n",
        "print(f\"[CHECK] getcwd : {os.getcwd()}\")\n",
        "\n",
        "# 옵션 설정\n",
        "sysOpt = {\n",
        "\n",
        "}\n",
        "\n",
        "# 구글 드라이브 삭제\n",
        "# ! rm -rf '/content/drive/MyDrive/COLAB/testSys-LSH0568'\n",
        "\n",
        "# 구글 코랩 세션 무한 연결\n",
        "# function PreventDisconnection(){\n",
        "#     document.querySelector(\"colab-toolbar-button#connect\").click()\n",
        "#     console.log(\"클릭이 완료되었습니다.\");\n",
        "# }\n",
        "# setInterval(PreventDisconnection, 60 * 10000)"
      ]
    },
    {
      "cell_type": "markdown",
      "metadata": {
        "id": "JDu0FhMUJipK"
      },
      "source": [
        "# 시스템 환경 구축"
      ]
    },
    {
      "cell_type": "code",
      "execution_count": null,
      "metadata": {
        "colab": {
          "base_uri": "https://localhost:8080/"
        },
        "id": "JTqOq3p0F0ul",
        "outputId": "4cb6d753-552d-4cd1-d757-42280e94b80a"
      },
      "outputs": [
        {
          "output_type": "stream",
          "name": "stdout",
          "text": [
            "[CHECK] getcwd : /content/drive/MyDrive/COLAB/testSys-LSH0568/YOLOv7-DeepSORT-Object-Tracking\n",
            "Downloading...\n",
            "From (original): https://drive.google.com/uc?id=1O577NwrOWhQ8T7Ihtn-X_eD_dO-RcChk\n",
            "From (redirected): https://drive.google.com/uc?id=1O577NwrOWhQ8T7Ihtn-X_eD_dO-RcChk&confirm=t&uuid=848cb2e6-434b-46d2-a860-0c6a632be01f\n",
            "To: /content/drive/MyDrive/COLAB/testSys-LSH0568/YOLOv7-DeepSORT-Object-Tracking/TalentPlatform-LSH0568-deep_sort_tracking_id.py\n",
            "100% 17.4k/17.4k [00:00<00:00, 40.0MB/s]\n"
          ]
        }
      ],
      "source": [
        "# # 소스코드 다운로드\n",
        "# os.chdir(f\"{globalVar['ctxPath']}\")\n",
        "# print(f\"[CHECK] getcwd : {os.getcwd()}\")\n",
        "# ! git clone https://github.com/MuhammadMoinFaisal/YOLOv7-DeepSORT-Object-Tracking.git\n",
        "\n",
        "# # 라이브러리 다운로드/설치\n",
        "# os.chdir(f\"{globalVar['ctxPath']}/YOLOv7-DeepSORT-Object-Tracking\")\n",
        "# print(f\"[CHECK] getcwd : {os.getcwd()}\")\n",
        "# ! pip install -r requirements.txt\n",
        "# ! pip install easydict\n",
        "\n",
        "# # deep_sort_pytorch 다운로드/설치\n",
        "# ! gdown \"https://drive.google.com/uc?id=11ZSZcG-bcbueXZC3rN08CM0qqX3eiHxf&confirm=t\"\n",
        "# ! unzip 'deep_sort_pytorch.zip'\n",
        "\n",
        "# # YOLO 학습모형 다운로드/설치\n",
        "# cmd = f\"wget -P {globalVar['ctxPath']}/YOLOv7-DeepSORT-Object-Tracking https://github.com/WongKinYiu/yolov7/releases/download/v0.1/yolov7.pt\"\n",
        "# print(f\"[CHECK] cmd : {cmd}\")\n",
        "# ! {cmd}\n",
        "\n",
        "# # 샘플 파일 다운로드\n",
        "# ! gdown https://drive.google.com/uc?id=1_kt1alzcLRVxet-Drx0mt_KFSd3vrtHU\n",
        "\n",
        "# # 비즈니스 로직 다운로드\n",
        "# ! gdown https://drive.google.com/uc?id=1O577NwrOWhQ8T7Ihtn-X_eD_dO-RcChk\n",
        "\n",
        "# # 샘플 파일 다운로드\n",
        "# os.chdir(f\"{globalVar['inpPath']}\")\n",
        "# print(f\"[CHECK] getcwd : {os.getcwd()}\")\n",
        "# ! gdown https://drive.google.com/uc?id=1O7476xFKfxcjRJK3QJpy-nljtrrW4xAr\n",
        "# ! gdown https://drive.google.com/uc?id=1O811iqDcPgYC0-cjRzs62dwLscuaSTqG\n",
        "# ! gdown https://drive.google.com/uc?id=1O7xeTPGBV5ySolOVKsM_iNJIdKqxZJOQ"
      ]
    },
    {
      "cell_type": "markdown",
      "metadata": {
        "id": "xrxzHtFkElir"
      },
      "source": [
        "# 비즈니스 로직"
      ]
    },
    {
      "cell_type": "code",
      "execution_count": null,
      "metadata": {
        "id": "dKvyHRJPL-ui"
      },
      "outputs": [],
      "source": [
        "# 작업경로 설정\n",
        "# os.chdir(f\"{globalVar['ctxPath']}/YOLOv7-DeepSORT-Object-Tracking\")\n",
        "# os.getcwd()\n",
        "\n",
        "# 샘플 파일 처리\n",
        "# cmd = f\"python deep_sort_tracking_id.py --weights yolov7.pt  --img 640  --source test1.mp4\"\n",
        "# print(f\"[CHECK] cmd : {cmd}\")\n",
        "# ! {cmd}"
      ]
    },
    {
      "cell_type": "code",
      "execution_count": null,
      "metadata": {
        "colab": {
          "base_uri": "https://localhost:8080/"
        },
        "id": "Qesy8lPaEaXW",
        "outputId": "9640322f-519b-408e-93eb-5c26c50b966e"
      },
      "outputs": [
        {
          "output_type": "stream",
          "name": "stdout",
          "text": [
            "[CHECK] cmd : python /content/drive/MyDrive/COLAB/testSys-LSH0568/YOLOv7-DeepSORT-Object-Tracking/TalentPlatform-LSH0568-deep_sort_tracking_id.py --weights yolov7.pt --source /content/drive/MyDrive/COLAB/testSys-LSH0568/INPUT/case_eGtahtswt_E.mp4 --classes 0 --save-txt --save-conf --exist-ok --save_dir result_20240710\n",
            "Namespace(weights=['yolov7.pt'], source='/content/drive/MyDrive/COLAB/testSys-LSH0568/INPUT/case_eGtahtswt_E.mp4', img_size=640, conf_thres=0.25, iou_thres=0.45, device='', view_img=False, save_txt=True, save_conf=True, nosave=False, classes=[0], agnostic_nms=False, augment=False, update=False, save_dir='result_20240710', names='data/coco.names', exist_ok=True, no_trace=False, trailslen=64)\n",
            "YOLOR 🚀 2259cbe torch 2.3.0+cu121 CPU\n",
            "\n",
            "Fusing layers... \n",
            "RepConv.fuse_repvgg_block\n",
            "RepConv.fuse_repvgg_block\n",
            "RepConv.fuse_repvgg_block\n",
            "/usr/local/lib/python3.10/dist-packages/torch/functional.py:512: UserWarning: torch.meshgrid: in an upcoming release, it will be required to pass the indexing argument. (Triggered internally at ../aten/src/ATen/native/TensorShape.cpp:3587.)\n",
            "  return _VF.meshgrid(tensors, **kwargs)  # type: ignore[attr-defined]\n",
            "Model Summary: 306 layers, 36905341 parameters, 6652669 gradients, 104.5 GFLOPS\n",
            " Convert model to Traced-model... \n",
            " traced_script_module saved! \n",
            " model is traced! \n",
            "\n",
            "video 1/1 (1/5036) /content/drive/MyDrive/COLAB/testSys-LSH0568/INPUT/case_eGtahtswt_E.mp4: Done. (1367.4ms) Inference, (21.8ms) NMS\n",
            "video 1/1 (2/5036) /content/drive/MyDrive/COLAB/testSys-LSH0568/INPUT/case_eGtahtswt_E.mp4: Done. (1220.5ms) Inference, (0.9ms) NMS\n",
            "video 1/1 (3/5036) /content/drive/MyDrive/COLAB/testSys-LSH0568/INPUT/case_eGtahtswt_E.mp4: Done. (1222.8ms) Inference, (1.0ms) NMS\n"
          ]
        }
      ],
      "source": [
        "# 작업경로 설정\n",
        "os.chdir(f\"{globalVar['ctxPath']}/YOLOv7-DeepSORT-Object-Tracking\")\n",
        "os.getcwd()\n",
        "\n",
        "# 테스트 파일 처리\n",
        "srcInfo = f\"{globalVar['ctxPath']}/YOLOv7-DeepSORT-Object-Tracking/TalentPlatform-LSH0568-deep_sort_tracking_id.py\"\n",
        "modelInfo = f\"yolov7.pt\"\n",
        "inpInfo = f\"{globalVar['inpPath']}/case_eGtahtswt_E.mp4\"\n",
        "# inpInfo = f\"{globalVar['inpPath']}/case2_GVz6RZZmTlg.mp4\"\n",
        "# inpInfo = f\"{globalVar['inpPath']}/case3_KHYEROW8RYA.mp4\"\n",
        "outInfo = f\"{globalVar['outPath']}/result_20240710\"\n",
        "\n",
        "# 단위 테스트\n",
        "# # cmd = f\"python {srcInfo} --weights {modelInfo} --source {inpInfo} --classes 0 --save-txt --save-conf --exist-ok --save_dir {os.path.basename(outInfo)}\"\n",
        "# print(f\"[CHECK] cmd : {cmd}\")\n",
        "# ! {cmd}\n",
        "\n",
        "# 통합 테스트\n",
        "keyList = [\"case_eGtahtswt_E.mp4\", \"case2_GVz6RZZmTlg.mp4\", \"case3_KHYEROW8RYA.mp4\"]\n",
        "for key in keyList:\n",
        "    inpInfo = f\"{globalVar['inpPath']}/{key}\"\n",
        "    cmd = f\"python {srcInfo} --weights {modelInfo} --source {inpInfo} --classes 0 --save-txt --save-conf --exist-ok --save_dir {os.path.basename(outInfo)}\"\n",
        "    print(f\"[CHECK] cmd : {cmd}\")\n",
        "    ! {cmd}"
      ]
    },
    {
      "cell_type": "markdown",
      "metadata": {
        "id": "a-qzzNr-LmxG"
      },
      "source": [
        "# 테스트 영상 보기"
      ]
    },
    {
      "cell_type": "code",
      "execution_count": null,
      "metadata": {
        "colab": {
          "background_save": true,
          "base_uri": "https://localhost:8080/"
        },
        "id": "eFxjqMoDMLY0",
        "outputId": "e3521da5-a1fb-410e-eb5d-09bde407c0c5"
      },
      "outputs": [
        {
          "name": "stdout",
          "output_type": "stream",
          "text": [
            "[CHECK] saveFileInfo : /content/drive/MyDrive/COLAB/testSys-LSH0568/OUTPUT/result_20240710/case2_GVz6RZZmTlg.mp4\n",
            "[CHECK] comFileInfo : /content/drive/MyDrive/COLAB/testSys-LSH0568/OUTPUT/com_20240710/case2_GVz6RZZmTlg.mp4\n",
            "[CHECK] cmd : ffmpeg -y -i /content/drive/MyDrive/COLAB/testSys-LSH0568/OUTPUT/result_20240710/case2_GVz6RZZmTlg.mp4 -vcodec libx264 /content/drive/MyDrive/COLAB/testSys-LSH0568/OUTPUT/com_20240710/case2_GVz6RZZmTlg.mp4\n",
            "ffmpeg version 4.4.2-0ubuntu0.22.04.1 Copyright (c) 2000-2021 the FFmpeg developers\n",
            "  built with gcc 11 (Ubuntu 11.2.0-19ubuntu1)\n",
            "  configuration: --prefix=/usr --extra-version=0ubuntu0.22.04.1 --toolchain=hardened --libdir=/usr/lib/x86_64-linux-gnu --incdir=/usr/include/x86_64-linux-gnu --arch=amd64 --enable-gpl --disable-stripping --enable-gnutls --enable-ladspa --enable-libaom --enable-libass --enable-libbluray --enable-libbs2b --enable-libcaca --enable-libcdio --enable-libcodec2 --enable-libdav1d --enable-libflite --enable-libfontconfig --enable-libfreetype --enable-libfribidi --enable-libgme --enable-libgsm --enable-libjack --enable-libmp3lame --enable-libmysofa --enable-libopenjpeg --enable-libopenmpt --enable-libopus --enable-libpulse --enable-librabbitmq --enable-librubberband --enable-libshine --enable-libsnappy --enable-libsoxr --enable-libspeex --enable-libsrt --enable-libssh --enable-libtheora --enable-libtwolame --enable-libvidstab --enable-libvorbis --enable-libvpx --enable-libwebp --enable-libx265 --enable-libxml2 --enable-libxvid --enable-libzimg --enable-libzmq --enable-libzvbi --enable-lv2 --enable-omx --enable-openal --enable-opencl --enable-opengl --enable-sdl2 --enable-pocketsphinx --enable-librsvg --enable-libmfx --enable-libdc1394 --enable-libdrm --enable-libiec61883 --enable-chromaprint --enable-frei0r --enable-libx264 --enable-shared\n",
            "  libavutil      56. 70.100 / 56. 70.100\n",
            "  libavcodec     58.134.100 / 58.134.100\n",
            "  libavformat    58. 76.100 / 58. 76.100\n",
            "  libavdevice    58. 13.100 / 58. 13.100\n",
            "  libavfilter     7.110.100 /  7.110.100\n",
            "  libswscale      5.  9.100 /  5.  9.100\n",
            "  libswresample   3.  9.100 /  3.  9.100\n",
            "  libpostproc    55.  9.100 / 55.  9.100\n",
            "Input #0, mov,mp4,m4a,3gp,3g2,mj2, from '/content/drive/MyDrive/COLAB/testSys-LSH0568/OUTPUT/result_20240710/case2_GVz6RZZmTlg.mp4':\n",
            "  Metadata:\n",
            "    major_brand     : isom\n",
            "    minor_version   : 512\n",
            "    compatible_brands: isomiso2mp41\n",
            "    encoder         : Lavf59.27.100\n",
            "  Duration: 00:00:29.23, start: 0.000000, bitrate: 2778 kb/s\n",
            "  Stream #0:0(und): Video: mpeg4 (Simple Profile) (mp4v / 0x7634706D), yuv420p, 1280x720 [SAR 1:1 DAR 16:9], 2777 kb/s, 29.97 fps, 29.97 tbr, 11988 tbn, 2997 tbc (default)\n",
            "    Metadata:\n",
            "      handler_name    : VideoHandler\n",
            "      vendor_id       : [0][0][0][0]\n",
            "Stream mapping:\n",
            "  Stream #0:0 -> #0:0 (mpeg4 (native) -> h264 (libx264))\n",
            "Press [q] to stop, [?] for help\n",
            "\u001b[1;36m[libx264 @ 0x57bdbd4b9ec0] \u001b[0musing SAR=1/1\n",
            "\u001b[1;36m[libx264 @ 0x57bdbd4b9ec0] \u001b[0musing cpu capabilities: MMX2 SSE2Fast SSSE3 SSE4.2 AVX FMA3 BMI2 AVX2\n",
            "\u001b[1;36m[libx264 @ 0x57bdbd4b9ec0] \u001b[0mprofile High, level 3.1, 4:2:0, 8-bit\n",
            "\u001b[1;36m[libx264 @ 0x57bdbd4b9ec0] \u001b[0m264 - core 163 r3060 5db6aa6 - H.264/MPEG-4 AVC codec - Copyleft 2003-2021 - http://www.videolan.org/x264.html - options: cabac=1 ref=3 deblock=1:0:0 analyse=0x3:0x113 me=hex subme=7 psy=1 psy_rd=1.00:0.00 mixed_ref=1 me_range=16 chroma_me=1 trellis=1 8x8dct=1 cqm=0 deadzone=21,11 fast_pskip=1 chroma_qp_offset=-2 threads=3 lookahead_threads=1 sliced_threads=0 nr=0 decimate=1 interlaced=0 bluray_compat=0 constrained_intra=0 bframes=3 b_pyramid=2 b_adapt=1 b_bias=0 direct=1 weightb=1 open_gop=0 weightp=2 keyint=250 keyint_min=25 scenecut=40 intra_refresh=0 rc_lookahead=40 rc=crf mbtree=1 crf=23.0 qcomp=0.60 qpmin=0 qpmax=69 qpstep=4 ip_ratio=1.40 aq=1:1.00\n",
            "Output #0, mp4, to '/content/drive/MyDrive/COLAB/testSys-LSH0568/OUTPUT/com_20240710/case2_GVz6RZZmTlg.mp4':\n",
            "  Metadata:\n",
            "    major_brand     : isom\n",
            "    minor_version   : 512\n",
            "    compatible_brands: isomiso2mp41\n",
            "    encoder         : Lavf58.76.100\n",
            "  Stream #0:0(und): Video: h264 (avc1 / 0x31637661), yuv420p(progressive), 1280x720 [SAR 1:1 DAR 16:9], q=2-31, 29.97 fps, 11988 tbn (default)\n",
            "    Metadata:\n",
            "      handler_name    : VideoHandler\n",
            "      vendor_id       : [0][0][0][0]\n",
            "      encoder         : Lavc58.134.100 libx264\n",
            "    Side data:\n",
            "      cpb: bitrate max/min/avg: 0/0/0 buffer size: 0 vbv_delay: N/A\n",
            "frame=  876 fps= 13 q=-1.0 Lsize=    4449kB time=00:00:29.12 bitrate=1251.2kbits/s speed=0.445x    \n",
            "video:4439kB audio:0kB subtitle:0kB other streams:0kB global headers:0kB muxing overhead: 0.227450%\n",
            "\u001b[1;36m[libx264 @ 0x57bdbd4b9ec0] \u001b[0mframe I:5     Avg QP:17.69  size: 46799\n",
            "\u001b[1;36m[libx264 @ 0x57bdbd4b9ec0] \u001b[0mframe P:452   Avg QP:21.83  size:  8547\n",
            "\u001b[1;36m[libx264 @ 0x57bdbd4b9ec0] \u001b[0mframe B:419   Avg QP:25.54  size:  1068\n",
            "\u001b[1;36m[libx264 @ 0x57bdbd4b9ec0] \u001b[0mconsecutive B-frames: 22.7% 37.9%  7.9% 31.5%\n",
            "\u001b[1;36m[libx264 @ 0x57bdbd4b9ec0] \u001b[0mmb I  I16..4: 19.7% 71.0%  9.4%\n",
            "\u001b[1;36m[libx264 @ 0x57bdbd4b9ec0] \u001b[0mmb P  I16..4:  0.2%  3.2%  0.1%  P16..4: 46.0%  9.4%  4.6%  0.0%  0.0%    skip:36.5%\n",
            "\u001b[1;36m[libx264 @ 0x57bdbd4b9ec0] \u001b[0mmb B  I16..4:  0.0%  0.2%  0.0%  B16..8: 27.3%  0.2%  0.0%  direct: 0.0%  skip:72.2%  L0:42.4% L1:56.5% BI: 1.1%\n",
            "\u001b[1;36m[libx264 @ 0x57bdbd4b9ec0] \u001b[0m8x8 transform intra:86.8% inter:83.0%\n",
            "\u001b[1;36m[libx264 @ 0x57bdbd4b9ec0] \u001b[0mcoded y,uvDC,uvAC intra: 80.2% 3.0% 1.1% inter: 10.4% 0.5% 0.1%\n",
            "\u001b[1;36m[libx264 @ 0x57bdbd4b9ec0] \u001b[0mi16 v,h,dc,p: 53% 16% 13% 18%\n",
            "\u001b[1;36m[libx264 @ 0x57bdbd4b9ec0] \u001b[0mi8 v,h,dc,ddl,ddr,vr,hd,vl,hu: 17% 28% 27%  4%  4%  4%  6%  4%  6%\n",
            "\u001b[1;36m[libx264 @ 0x57bdbd4b9ec0] \u001b[0mi4 v,h,dc,ddl,ddr,vr,hd,vl,hu: 27% 31%  7%  5%  7%  6%  7%  5%  6%\n",
            "\u001b[1;36m[libx264 @ 0x57bdbd4b9ec0] \u001b[0mi8c dc,h,v,p: 96%  2%  2%  0%\n",
            "\u001b[1;36m[libx264 @ 0x57bdbd4b9ec0] \u001b[0mWeighted P-Frames: Y:0.2% UV:0.0%\n",
            "\u001b[1;36m[libx264 @ 0x57bdbd4b9ec0] \u001b[0mref P L0: 70.7% 15.4% 10.9%  3.1%  0.0%\n",
            "\u001b[1;36m[libx264 @ 0x57bdbd4b9ec0] \u001b[0mref B L0: 85.3% 13.1%  1.6%\n",
            "\u001b[1;36m[libx264 @ 0x57bdbd4b9ec0] \u001b[0mref B L1: 96.9%  3.1%\n",
            "\u001b[1;36m[libx264 @ 0x57bdbd4b9ec0] \u001b[0mkb/s:1243.94\n",
            "[CHECK] saveFileInfo : /content/drive/MyDrive/COLAB/testSys-LSH0568/OUTPUT/result_20240710/case3_KHYEROW8RYA.mp4\n",
            "[CHECK] comFileInfo : /content/drive/MyDrive/COLAB/testSys-LSH0568/OUTPUT/com_20240710/case3_KHYEROW8RYA.mp4\n",
            "[CHECK] cmd : ffmpeg -y -i /content/drive/MyDrive/COLAB/testSys-LSH0568/OUTPUT/result_20240710/case3_KHYEROW8RYA.mp4 -vcodec libx264 /content/drive/MyDrive/COLAB/testSys-LSH0568/OUTPUT/com_20240710/case3_KHYEROW8RYA.mp4\n",
            "ffmpeg version 4.4.2-0ubuntu0.22.04.1 Copyright (c) 2000-2021 the FFmpeg developers\n",
            "  built with gcc 11 (Ubuntu 11.2.0-19ubuntu1)\n",
            "  configuration: --prefix=/usr --extra-version=0ubuntu0.22.04.1 --toolchain=hardened --libdir=/usr/lib/x86_64-linux-gnu --incdir=/usr/include/x86_64-linux-gnu --arch=amd64 --enable-gpl --disable-stripping --enable-gnutls --enable-ladspa --enable-libaom --enable-libass --enable-libbluray --enable-libbs2b --enable-libcaca --enable-libcdio --enable-libcodec2 --enable-libdav1d --enable-libflite --enable-libfontconfig --enable-libfreetype --enable-libfribidi --enable-libgme --enable-libgsm --enable-libjack --enable-libmp3lame --enable-libmysofa --enable-libopenjpeg --enable-libopenmpt --enable-libopus --enable-libpulse --enable-librabbitmq --enable-librubberband --enable-libshine --enable-libsnappy --enable-libsoxr --enable-libspeex --enable-libsrt --enable-libssh --enable-libtheora --enable-libtwolame --enable-libvidstab --enable-libvorbis --enable-libvpx --enable-libwebp --enable-libx265 --enable-libxml2 --enable-libxvid --enable-libzimg --enable-libzmq --enable-libzvbi --enable-lv2 --enable-omx --enable-openal --enable-opencl --enable-opengl --enable-sdl2 --enable-pocketsphinx --enable-librsvg --enable-libmfx --enable-libdc1394 --enable-libdrm --enable-libiec61883 --enable-chromaprint --enable-frei0r --enable-libx264 --enable-shared\n",
            "  libavutil      56. 70.100 / 56. 70.100\n",
            "  libavcodec     58.134.100 / 58.134.100\n",
            "  libavformat    58. 76.100 / 58. 76.100\n",
            "  libavdevice    58. 13.100 / 58. 13.100\n",
            "  libavfilter     7.110.100 /  7.110.100\n",
            "  libswscale      5.  9.100 /  5.  9.100\n",
            "  libswresample   3.  9.100 /  3.  9.100\n",
            "  libpostproc    55.  9.100 / 55.  9.100\n",
            "Input #0, mov,mp4,m4a,3gp,3g2,mj2, from '/content/drive/MyDrive/COLAB/testSys-LSH0568/OUTPUT/result_20240710/case3_KHYEROW8RYA.mp4':\n",
            "  Metadata:\n",
            "    major_brand     : isom\n",
            "    minor_version   : 512\n",
            "    compatible_brands: isomiso2mp41\n",
            "    encoder         : Lavf59.27.100\n",
            "  Duration: 00:01:30.36, start: 0.000000, bitrate: 9210 kb/s\n",
            "  Stream #0:0(und): Video: mpeg4 (Simple Profile) (mp4v / 0x7634706D), yuv420p, 1920x1080 [SAR 1:1 DAR 16:9], 9209 kb/s, 29.97 fps, 29.97 tbr, 11988 tbn, 2997 tbc (default)\n",
            "    Metadata:\n",
            "      handler_name    : VideoHandler\n",
            "      vendor_id       : [0][0][0][0]\n",
            "Stream mapping:\n",
            "  Stream #0:0 -> #0:0 (mpeg4 (native) -> h264 (libx264))\n",
            "Press [q] to stop, [?] for help\n",
            "\u001b[1;36m[libx264 @ 0x5d4bf7e77c80] \u001b[0musing SAR=1/1\n",
            "\u001b[1;36m[libx264 @ 0x5d4bf7e77c80] \u001b[0musing cpu capabilities: MMX2 SSE2Fast SSSE3 SSE4.2 AVX FMA3 BMI2 AVX2\n",
            "\u001b[1;36m[libx264 @ 0x5d4bf7e77c80] \u001b[0mprofile High, level 4.0, 4:2:0, 8-bit\n",
            "\u001b[1;36m[libx264 @ 0x5d4bf7e77c80] \u001b[0m264 - core 163 r3060 5db6aa6 - H.264/MPEG-4 AVC codec - Copyleft 2003-2021 - http://www.videolan.org/x264.html - options: cabac=1 ref=3 deblock=1:0:0 analyse=0x3:0x113 me=hex subme=7 psy=1 psy_rd=1.00:0.00 mixed_ref=1 me_range=16 chroma_me=1 trellis=1 8x8dct=1 cqm=0 deadzone=21,11 fast_pskip=1 chroma_qp_offset=-2 threads=3 lookahead_threads=1 sliced_threads=0 nr=0 decimate=1 interlaced=0 bluray_compat=0 constrained_intra=0 bframes=3 b_pyramid=2 b_adapt=1 b_bias=0 direct=1 weightb=1 open_gop=0 weightp=2 keyint=250 keyint_min=25 scenecut=40 intra_refresh=0 rc_lookahead=40 rc=crf mbtree=1 crf=23.0 qcomp=0.60 qpmin=0 qpmax=69 qpstep=4 ip_ratio=1.40 aq=1:1.00\n",
            "Output #0, mp4, to '/content/drive/MyDrive/COLAB/testSys-LSH0568/OUTPUT/com_20240710/case3_KHYEROW8RYA.mp4':\n",
            "  Metadata:\n",
            "    major_brand     : isom\n",
            "    minor_version   : 512\n",
            "    compatible_brands: isomiso2mp41\n",
            "    encoder         : Lavf58.76.100\n",
            "  Stream #0:0(und): Video: h264 (avc1 / 0x31637661), yuv420p(progressive), 1920x1080 [SAR 1:1 DAR 16:9], q=2-31, 29.97 fps, 11988 tbn (default)\n",
            "    Metadata:\n",
            "      handler_name    : VideoHandler\n",
            "      vendor_id       : [0][0][0][0]\n",
            "      encoder         : Lavc58.134.100 libx264\n",
            "    Side data:\n",
            "      cpb: bitrate max/min/avg: 0/0/0 buffer size: 0 vbv_delay: N/A\n",
            "frame= 2708 fps=7.4 q=-1.0 Lsize=   43729kB time=00:01:30.25 bitrate=3969.0kbits/s speed=0.246x    \n",
            "video:43699kB audio:0kB subtitle:0kB other streams:0kB global headers:0kB muxing overhead: 0.068340%\n",
            "\u001b[1;36m[libx264 @ 0x5d4bf7e77c80] \u001b[0mframe I:22    Avg QP:18.55  size:130946\n",
            "\u001b[1;36m[libx264 @ 0x5d4bf7e77c80] \u001b[0mframe P:1175  Avg QP:22.02  size: 24134\n",
            "\u001b[1;36m[libx264 @ 0x5d4bf7e77c80] \u001b[0mframe B:1511  Avg QP:25.56  size:  8941\n",
            "\u001b[1;36m[libx264 @ 0x5d4bf7e77c80] \u001b[0mconsecutive B-frames: 20.7% 11.7%  8.8% 58.8%\n",
            "\u001b[1;36m[libx264 @ 0x5d4bf7e77c80] \u001b[0mmb I  I16..4: 15.6% 78.8%  5.6%\n",
            "\u001b[1;36m[libx264 @ 0x5d4bf7e77c80] \u001b[0mmb P  I16..4:  2.7% 10.9%  0.2%  P16..4: 38.2%  7.8%  3.6%  0.0%  0.0%    skip:36.6%\n",
            "\u001b[1;36m[libx264 @ 0x5d4bf7e77c80] \u001b[0mmb B  I16..4:  0.8%  3.3%  0.0%  B16..8: 30.9%  2.8%  0.4%  direct: 1.0%  skip:60.8%  L0:53.8% L1:42.9% BI: 3.4%\n",
            "\u001b[1;36m[libx264 @ 0x5d4bf7e77c80] \u001b[0m8x8 transform intra:79.2% inter:86.8%\n",
            "\u001b[1;36m[libx264 @ 0x5d4bf7e77c80] \u001b[0mcoded y,uvDC,uvAC intra: 52.3% 62.9% 3.9% inter: 10.5% 10.5% 0.2%\n",
            "\u001b[1;36m[libx264 @ 0x5d4bf7e77c80] \u001b[0mi16 v,h,dc,p: 26% 32% 24% 18%\n",
            "\u001b[1;36m[libx264 @ 0x5d4bf7e77c80] \u001b[0mi8 v,h,dc,ddl,ddr,vr,hd,vl,hu: 24% 25% 35%  3%  2%  3%  3%  2%  3%\n",
            "\u001b[1;36m[libx264 @ 0x5d4bf7e77c80] \u001b[0mi4 v,h,dc,ddl,ddr,vr,hd,vl,hu: 34% 31% 12%  3%  4%  4%  4%  3%  3%\n",
            "\u001b[1;36m[libx264 @ 0x5d4bf7e77c80] \u001b[0mi8c dc,h,v,p: 46% 29% 21%  4%\n",
            "\u001b[1;36m[libx264 @ 0x5d4bf7e77c80] \u001b[0mWeighted P-Frames: Y:0.5% UV:0.4%\n",
            "\u001b[1;36m[libx264 @ 0x5d4bf7e77c80] \u001b[0mref P L0: 68.2%  9.9% 15.8%  6.2%  0.0%\n",
            "\u001b[1;36m[libx264 @ 0x5d4bf7e77c80] \u001b[0mref B L0: 83.7% 13.4%  2.9%\n",
            "\u001b[1;36m[libx264 @ 0x5d4bf7e77c80] \u001b[0mref B L1: 94.1%  5.9%\n",
            "\u001b[1;36m[libx264 @ 0x5d4bf7e77c80] \u001b[0mkb/s:3961.82\n",
            "[CHECK] saveFileInfo : /content/drive/MyDrive/COLAB/testSys-LSH0568/OUTPUT/result_20240710/case_eGtahtswt_E.mp4\n",
            "[CHECK] comFileInfo : /content/drive/MyDrive/COLAB/testSys-LSH0568/OUTPUT/com_20240710/case_eGtahtswt_E.mp4\n",
            "[CHECK] cmd : ffmpeg -y -i /content/drive/MyDrive/COLAB/testSys-LSH0568/OUTPUT/result_20240710/case_eGtahtswt_E.mp4 -vcodec libx264 /content/drive/MyDrive/COLAB/testSys-LSH0568/OUTPUT/com_20240710/case_eGtahtswt_E.mp4\n",
            "ffmpeg version 4.4.2-0ubuntu0.22.04.1 Copyright (c) 2000-2021 the FFmpeg developers\n",
            "  built with gcc 11 (Ubuntu 11.2.0-19ubuntu1)\n",
            "  configuration: --prefix=/usr --extra-version=0ubuntu0.22.04.1 --toolchain=hardened --libdir=/usr/lib/x86_64-linux-gnu --incdir=/usr/include/x86_64-linux-gnu --arch=amd64 --enable-gpl --disable-stripping --enable-gnutls --enable-ladspa --enable-libaom --enable-libass --enable-libbluray --enable-libbs2b --enable-libcaca --enable-libcdio --enable-libcodec2 --enable-libdav1d --enable-libflite --enable-libfontconfig --enable-libfreetype --enable-libfribidi --enable-libgme --enable-libgsm --enable-libjack --enable-libmp3lame --enable-libmysofa --enable-libopenjpeg --enable-libopenmpt --enable-libopus --enable-libpulse --enable-librabbitmq --enable-librubberband --enable-libshine --enable-libsnappy --enable-libsoxr --enable-libspeex --enable-libsrt --enable-libssh --enable-libtheora --enable-libtwolame --enable-libvidstab --enable-libvorbis --enable-libvpx --enable-libwebp --enable-libx265 --enable-libxml2 --enable-libxvid --enable-libzimg --enable-libzmq --enable-libzvbi --enable-lv2 --enable-omx --enable-openal --enable-opencl --enable-opengl --enable-sdl2 --enable-pocketsphinx --enable-librsvg --enable-libmfx --enable-libdc1394 --enable-libdrm --enable-libiec61883 --enable-chromaprint --enable-frei0r --enable-libx264 --enable-shared\n",
            "  libavutil      56. 70.100 / 56. 70.100\n",
            "  libavcodec     58.134.100 / 58.134.100\n",
            "  libavformat    58. 76.100 / 58. 76.100\n",
            "  libavdevice    58. 13.100 / 58. 13.100\n",
            "  libavfilter     7.110.100 /  7.110.100\n",
            "  libswscale      5.  9.100 /  5.  9.100\n",
            "  libswresample   3.  9.100 /  3.  9.100\n",
            "  libpostproc    55.  9.100 / 55.  9.100\n",
            "Input #0, mov,mp4,m4a,3gp,3g2,mj2, from '/content/drive/MyDrive/COLAB/testSys-LSH0568/OUTPUT/result_20240710/case_eGtahtswt_E.mp4':\n",
            "  Metadata:\n",
            "    major_brand     : isom\n",
            "    minor_version   : 512\n",
            "    compatible_brands: isomiso2mp41\n",
            "    encoder         : Lavf59.27.100\n",
            "  Duration: 00:02:48.04, start: 0.000000, bitrate: 5050 kb/s\n",
            "  Stream #0:0(und): Video: mpeg4 (Simple Profile) (mp4v / 0x7634706D), yuv420p, 1920x1080 [SAR 1:1 DAR 16:9], 5049 kb/s, 29.97 fps, 29.97 tbr, 11988 tbn, 2997 tbc (default)\n",
            "    Metadata:\n",
            "      handler_name    : VideoHandler\n",
            "      vendor_id       : [0][0][0][0]\n",
            "Stream mapping:\n",
            "  Stream #0:0 -> #0:0 (mpeg4 (native) -> h264 (libx264))\n",
            "Press [q] to stop, [?] for help\n",
            "\u001b[1;36m[libx264 @ 0x5691fe088480] \u001b[0musing SAR=1/1\n",
            "\u001b[1;36m[libx264 @ 0x5691fe088480] \u001b[0musing cpu capabilities: MMX2 SSE2Fast SSSE3 SSE4.2 AVX FMA3 BMI2 AVX2\n",
            "\u001b[1;36m[libx264 @ 0x5691fe088480] \u001b[0mprofile High, level 4.0, 4:2:0, 8-bit\n",
            "\u001b[1;36m[libx264 @ 0x5691fe088480] \u001b[0m264 - core 163 r3060 5db6aa6 - H.264/MPEG-4 AVC codec - Copyleft 2003-2021 - http://www.videolan.org/x264.html - options: cabac=1 ref=3 deblock=1:0:0 analyse=0x3:0x113 me=hex subme=7 psy=1 psy_rd=1.00:0.00 mixed_ref=1 me_range=16 chroma_me=1 trellis=1 8x8dct=1 cqm=0 deadzone=21,11 fast_pskip=1 chroma_qp_offset=-2 threads=3 lookahead_threads=1 sliced_threads=0 nr=0 decimate=1 interlaced=0 bluray_compat=0 constrained_intra=0 bframes=3 b_pyramid=2 b_adapt=1 b_bias=0 direct=1 weightb=1 open_gop=0 weightp=2 keyint=250 keyint_min=25 scenecut=40 intra_refresh=0 rc_lookahead=40 rc=crf mbtree=1 crf=23.0 qcomp=0.60 qpmin=0 qpmax=69 qpstep=4 ip_ratio=1.40 aq=1:1.00\n",
            "Output #0, mp4, to '/content/drive/MyDrive/COLAB/testSys-LSH0568/OUTPUT/com_20240710/case_eGtahtswt_E.mp4':\n",
            "  Metadata:\n",
            "    major_brand     : isom\n",
            "    minor_version   : 512\n",
            "    compatible_brands: isomiso2mp41\n",
            "    encoder         : Lavf58.76.100\n",
            "  Stream #0:0(und): Video: h264 (avc1 / 0x31637661), yuv420p(progressive), 1920x1080 [SAR 1:1 DAR 16:9], q=2-31, 29.97 fps, 11988 tbn (default)\n",
            "    Metadata:\n",
            "      handler_name    : VideoHandler\n",
            "      vendor_id       : [0][0][0][0]\n",
            "      encoder         : Lavc58.134.100 libx264\n",
            "    Side data:\n",
            "      cpb: bitrate max/min/avg: 0/0/0 buffer size: 0 vbv_delay: N/A\n",
            "frame= 5036 fps=9.1 q=-1.0 Lsize=   51431kB time=00:02:47.93 bitrate=2508.9kbits/s speed=0.304x    \n",
            "video:51380kB audio:0kB subtitle:0kB other streams:0kB global headers:0kB muxing overhead: 0.099871%\n",
            "\u001b[1;36m[libx264 @ 0x5691fe088480] \u001b[0mframe I:28    Avg QP:16.82  size: 68656\n",
            "\u001b[1;36m[libx264 @ 0x5691fe088480] \u001b[0mframe P:2458  Avg QP:20.95  size: 17319\n",
            "\u001b[1;36m[libx264 @ 0x5691fe088480] \u001b[0mframe B:2550  Avg QP:22.99  size:  3184\n",
            "\u001b[1;36m[libx264 @ 0x5691fe088480] \u001b[0mconsecutive B-frames: 27.4% 13.4%  6.0% 53.3%\n",
            "\u001b[1;36m[libx264 @ 0x5691fe088480] \u001b[0mmb I  I16..4: 22.9% 71.2%  6.0%\n",
            "\u001b[1;36m[libx264 @ 0x5691fe088480] \u001b[0mmb P  I16..4:  4.7% 13.7%  0.2%  P16..4: 36.6%  4.2%  1.9%  0.0%  0.0%    skip:38.7%\n",
            "\u001b[1;36m[libx264 @ 0x5691fe088480] \u001b[0mmb B  I16..4:  0.6%  1.3%  0.0%  B16..8: 24.1%  0.6%  0.0%  direct: 0.6%  skip:72.7%  L0:54.6% L1:44.6% BI: 0.8%\n",
            "\u001b[1;36m[libx264 @ 0x5691fe088480] \u001b[0m8x8 transform intra:73.2% inter:89.5%\n",
            "\u001b[1;36m[libx264 @ 0x5691fe088480] \u001b[0mcoded y,uvDC,uvAC intra: 32.9% 37.1% 1.9% inter: 5.0% 6.7% 0.1%\n",
            "\u001b[1;36m[libx264 @ 0x5691fe088480] \u001b[0mi16 v,h,dc,p: 28% 44% 17% 11%\n",
            "\u001b[1;36m[libx264 @ 0x5691fe088480] \u001b[0mi8 v,h,dc,ddl,ddr,vr,hd,vl,hu: 26% 31% 35%  2%  1%  1%  2%  1%  2%\n",
            "\u001b[1;36m[libx264 @ 0x5691fe088480] \u001b[0mi4 v,h,dc,ddl,ddr,vr,hd,vl,hu: 36% 34% 12%  3%  4%  3%  4%  2%  2%\n",
            "\u001b[1;36m[libx264 @ 0x5691fe088480] \u001b[0mi8c dc,h,v,p: 55% 27% 17%  2%\n",
            "\u001b[1;36m[libx264 @ 0x5691fe088480] \u001b[0mWeighted P-Frames: Y:0.7% UV:0.4%\n",
            "\u001b[1;36m[libx264 @ 0x5691fe088480] \u001b[0mref P L0: 78.5%  7.4% 10.7%  3.4%  0.0%\n",
            "\u001b[1;36m[libx264 @ 0x5691fe088480] \u001b[0mref B L0: 79.5% 17.4%  3.1%\n",
            "\u001b[1;36m[libx264 @ 0x5691fe088480] \u001b[0mref B L1: 94.3%  5.7%\n",
            "\u001b[1;36m[libx264 @ 0x5691fe088480] \u001b[0mkb/s:2504.83\n",
            "[CHECK] saveFileInfo : /content/drive/MyDrive/COLAB/testSys-LSH0568/OUTPUT/result_20240710/test1.mp4\n",
            "[CHECK] comFileInfo : /content/drive/MyDrive/COLAB/testSys-LSH0568/OUTPUT/com_20240710/test1.mp4\n",
            "[CHECK] cmd : ffmpeg -y -i /content/drive/MyDrive/COLAB/testSys-LSH0568/OUTPUT/result_20240710/test1.mp4 -vcodec libx264 /content/drive/MyDrive/COLAB/testSys-LSH0568/OUTPUT/com_20240710/test1.mp4\n",
            "ffmpeg version 4.4.2-0ubuntu0.22.04.1 Copyright (c) 2000-2021 the FFmpeg developers\n",
            "  built with gcc 11 (Ubuntu 11.2.0-19ubuntu1)\n",
            "  configuration: --prefix=/usr --extra-version=0ubuntu0.22.04.1 --toolchain=hardened --libdir=/usr/lib/x86_64-linux-gnu --incdir=/usr/include/x86_64-linux-gnu --arch=amd64 --enable-gpl --disable-stripping --enable-gnutls --enable-ladspa --enable-libaom --enable-libass --enable-libbluray --enable-libbs2b --enable-libcaca --enable-libcdio --enable-libcodec2 --enable-libdav1d --enable-libflite --enable-libfontconfig --enable-libfreetype --enable-libfribidi --enable-libgme --enable-libgsm --enable-libjack --enable-libmp3lame --enable-libmysofa --enable-libopenjpeg --enable-libopenmpt --enable-libopus --enable-libpulse --enable-librabbitmq --enable-librubberband --enable-libshine --enable-libsnappy --enable-libsoxr --enable-libspeex --enable-libsrt --enable-libssh --enable-libtheora --enable-libtwolame --enable-libvidstab --enable-libvorbis --enable-libvpx --enable-libwebp --enable-libx265 --enable-libxml2 --enable-libxvid --enable-libzimg --enable-libzmq --enable-libzvbi --enable-lv2 --enable-omx --enable-openal --enable-opencl --enable-opengl --enable-sdl2 --enable-pocketsphinx --enable-librsvg --enable-libmfx --enable-libdc1394 --enable-libdrm --enable-libiec61883 --enable-chromaprint --enable-frei0r --enable-libx264 --enable-shared\n",
            "  libavutil      56. 70.100 / 56. 70.100\n",
            "  libavcodec     58.134.100 / 58.134.100\n",
            "  libavformat    58. 76.100 / 58. 76.100\n",
            "  libavdevice    58. 13.100 / 58. 13.100\n",
            "  libavfilter     7.110.100 /  7.110.100\n",
            "  libswscale      5.  9.100 /  5.  9.100\n",
            "  libswresample   3.  9.100 /  3.  9.100\n",
            "  libpostproc    55.  9.100 / 55.  9.100\n",
            "Input #0, mov,mp4,m4a,3gp,3g2,mj2, from '/content/drive/MyDrive/COLAB/testSys-LSH0568/OUTPUT/result_20240710/test1.mp4':\n",
            "  Metadata:\n",
            "    major_brand     : isom\n",
            "    minor_version   : 512\n",
            "    compatible_brands: isomiso2mp41\n",
            "    encoder         : Lavf59.27.100\n",
            "  Duration: 00:00:31.40, start: 0.000000, bitrate: 3034 kb/s\n",
            "  Stream #0:0(und): Video: mpeg4 (Simple Profile) (mp4v / 0x7634706D), yuv420p, 1280x720 [SAR 1:1 DAR 16:9], 3033 kb/s, 30 fps, 30 tbr, 15360 tbn, 30 tbc (default)\n",
            "    Metadata:\n",
            "      handler_name    : VideoHandler\n",
            "      vendor_id       : [0][0][0][0]\n",
            "Stream mapping:\n",
            "  Stream #0:0 -> #0:0 (mpeg4 (native) -> h264 (libx264))\n",
            "Press [q] to stop, [?] for help\n",
            "\u001b[1;36m[libx264 @ 0x56d930763c00] \u001b[0musing SAR=1/1\n",
            "\u001b[1;36m[libx264 @ 0x56d930763c00] \u001b[0musing cpu capabilities: MMX2 SSE2Fast SSSE3 SSE4.2 AVX FMA3 BMI2 AVX2\n",
            "\u001b[1;36m[libx264 @ 0x56d930763c00] \u001b[0mprofile High, level 3.1, 4:2:0, 8-bit\n",
            "\u001b[1;36m[libx264 @ 0x56d930763c00] \u001b[0m264 - core 163 r3060 5db6aa6 - H.264/MPEG-4 AVC codec - Copyleft 2003-2021 - http://www.videolan.org/x264.html - options: cabac=1 ref=3 deblock=1:0:0 analyse=0x3:0x113 me=hex subme=7 psy=1 psy_rd=1.00:0.00 mixed_ref=1 me_range=16 chroma_me=1 trellis=1 8x8dct=1 cqm=0 deadzone=21,11 fast_pskip=1 chroma_qp_offset=-2 threads=3 lookahead_threads=1 sliced_threads=0 nr=0 decimate=1 interlaced=0 bluray_compat=0 constrained_intra=0 bframes=3 b_pyramid=2 b_adapt=1 b_bias=0 direct=1 weightb=1 open_gop=0 weightp=2 keyint=250 keyint_min=25 scenecut=40 intra_refresh=0 rc_lookahead=40 rc=crf mbtree=1 crf=23.0 qcomp=0.60 qpmin=0 qpmax=69 qpstep=4 ip_ratio=1.40 aq=1:1.00\n",
            "Output #0, mp4, to '/content/drive/MyDrive/COLAB/testSys-LSH0568/OUTPUT/com_20240710/test1.mp4':\n",
            "  Metadata:\n",
            "    major_brand     : isom\n",
            "    minor_version   : 512\n",
            "    compatible_brands: isomiso2mp41\n",
            "    encoder         : Lavf58.76.100\n",
            "  Stream #0:0(und): Video: h264 (avc1 / 0x31637661), yuv420p(progressive), 1280x720 [SAR 1:1 DAR 16:9], q=2-31, 30 fps, 15360 tbn (default)\n",
            "    Metadata:\n",
            "      handler_name    : VideoHandler\n",
            "      vendor_id       : [0][0][0][0]\n",
            "      encoder         : Lavc58.134.100 libx264\n",
            "    Side data:\n",
            "      cpb: bitrate max/min/avg: 0/0/0 buffer size: 0 vbv_delay: N/A\n",
            "frame=  942 fps= 25 q=-1.0 Lsize=    4544kB time=00:00:31.30 bitrate=1189.4kbits/s speed=0.844x    \n",
            "video:4536kB audio:0kB subtitle:0kB other streams:0kB global headers:0kB muxing overhead: 0.197078%\n",
            "\u001b[1;36m[libx264 @ 0x56d930763c00] \u001b[0mframe I:4     Avg QP:17.42  size: 62038\n",
            "\u001b[1;36m[libx264 @ 0x56d930763c00] \u001b[0mframe P:721   Avg QP:20.46  size:  5830\n",
            "\u001b[1;36m[libx264 @ 0x56d930763c00] \u001b[0mframe B:217   Avg QP:21.41  size:   884\n",
            "\u001b[1;36m[libx264 @ 0x56d930763c00] \u001b[0mconsecutive B-frames: 56.3% 37.6%  4.5%  1.7%\n",
            "\u001b[1;36m[libx264 @ 0x56d930763c00] \u001b[0mmb I  I16..4: 22.0% 69.6%  8.3%\n",
            "\u001b[1;36m[libx264 @ 0x56d930763c00] \u001b[0mmb P  I16..4:  0.9%  3.4%  0.1%  P16..4: 18.6%  4.7%  3.1%  0.0%  0.0%    skip:69.3%\n",
            "\u001b[1;36m[libx264 @ 0x56d930763c00] \u001b[0mmb B  I16..4:  0.2%  0.4%  0.0%  B16..8: 16.9%  0.6%  0.0%  direct: 0.2%  skip:81.6%  L0:46.0% L1:51.7% BI: 2.3%\n",
            "\u001b[1;36m[libx264 @ 0x56d930763c00] \u001b[0m8x8 transform intra:76.3% inter:68.0%\n",
            "\u001b[1;36m[libx264 @ 0x56d930763c00] \u001b[0mcoded y,uvDC,uvAC intra: 39.3% 57.3% 8.8% inter: 5.8% 5.9% 0.2%\n",
            "\u001b[1;36m[libx264 @ 0x56d930763c00] \u001b[0mi16 v,h,dc,p: 26% 36% 31%  6%\n",
            "\u001b[1;36m[libx264 @ 0x56d930763c00] \u001b[0mi8 v,h,dc,ddl,ddr,vr,hd,vl,hu: 18% 25% 48%  2%  1%  1%  2%  1%  2%\n",
            "\u001b[1;36m[libx264 @ 0x56d930763c00] \u001b[0mi4 v,h,dc,ddl,ddr,vr,hd,vl,hu: 22% 30% 17%  5%  6%  4%  6%  5%  4%\n",
            "\u001b[1;36m[libx264 @ 0x56d930763c00] \u001b[0mi8c dc,h,v,p: 43% 34% 19%  4%\n",
            "\u001b[1;36m[libx264 @ 0x56d930763c00] \u001b[0mWeighted P-Frames: Y:0.0% UV:0.0%\n",
            "\u001b[1;36m[libx264 @ 0x56d930763c00] \u001b[0mref P L0: 80.4%  9.2%  8.0%  2.5%\n",
            "\u001b[1;36m[libx264 @ 0x56d930763c00] \u001b[0mref B L0: 82.1% 17.4%  0.5%\n",
            "\u001b[1;36m[libx264 @ 0x56d930763c00] \u001b[0mref B L1: 99.8%  0.2%\n",
            "\u001b[1;36m[libx264 @ 0x56d930763c00] \u001b[0mkb/s:1183.10\n"
          ]
        }
      ],
      "source": [
        "import glob\n",
        "from IPython.display import HTML\n",
        "from base64 import b64encode\n",
        "import os\n",
        "\n",
        "inpFile = f\"{globalVar['outPath']}/result_20240710/*.mp4\"\n",
        "fileList = sorted(glob.glob(inpFile, recursive=True))\n",
        "fileList\n",
        "\n",
        "if fileList is None or len(fileList) < 1:\n",
        "    print(f'inpFile : {inpFile} / 입력 자료를 확인해주세요')\n",
        "\n",
        "for fileInfo in fileList:\n",
        "    fileName = os.path.basename(fileInfo)\n",
        "    # fileNameNoExt = os.path.basename(fileInfo).split('.')[0]\n",
        "\n",
        "    saveFileInfo = fileInfo\n",
        "    os.makedirs(os.path.dirname(saveFileInfo), exist_ok=True)\n",
        "    print(f\"[CHECK] saveFileInfo : {saveFileInfo}\")\n",
        "\n",
        "    comFileInfo = f\"{globalVar['outPath']}/com_20240710/{fileName}\"\n",
        "    os.makedirs(os.path.dirname(comFileInfo), exist_ok=True)\n",
        "    print(f\"[CHECK] comFileInfo : {comFileInfo}\")\n",
        "\n",
        "    cmd = f\"ffmpeg -y -i {saveFileInfo} -vcodec libx264 {comFileInfo}\"\n",
        "    print(f\"[CHECK] cmd : {cmd}\")\n",
        "    ! {cmd}\n",
        "\n",
        "    # Show video\n",
        "    mp4 = open(comFileInfo,'rb').read()\n",
        "    urlVid = \"data:video/mp4;base64,\" + b64encode(mp4).decode()\n",
        "    HTML(\"\"\"\n",
        "    <video width=1000 controls autoplay>\n",
        "        <source src=\"%s\" type=\"video/mp4\">\n",
        "    </video>\n",
        "    \"\"\" % urlVid)"
      ]
    }
  ],
  "metadata": {
    "accelerator": "TPU",
    "colab": {
      "gpuType": "V28",
      "provenance": []
    },
    "kernelspec": {
      "display_name": "Python 3",
      "name": "python3"
    },
    "language_info": {
      "name": "python"
    }
  },
  "nbformat": 4,
  "nbformat_minor": 0
}